HIERARCHY
ROOT Hips
{
    OFFSET 0.000000 0.000000 0.000000
    CHANNELS 6 Xposition Yposition Zposition Zrotation Xrotation Yrotation
    JOINT Spine
    {
        OFFSET -0.000000 7.897928 0.000000
        CHANNELS 3 Zrotation Xrotation Yrotation
        JOINT Spine1
        {
            OFFSET -0.000000 22.881742 0.000000
            CHANNELS 3 Zrotation Xrotation Yrotation
            JOINT Neck
            {
                OFFSET -0.000000 22.787771 2.071616
                CHANNELS 3 Zrotation Xrotation Yrotation
                JOINT Head
                {
                    OFFSET -0.000000 13.484266 -1.926324
                    CHANNELS 3 Zrotation Xrotation Yrotation
                    End Site
                    {
                        OFFSET -0.000000 24.079046 0.000000
                    }
                }
            }
            JOINT LeftShoulder
            {
                OFFSET 3.854963 21.096247 -0.110468
                CHANNELS 3 Zrotation Xrotation Yrotation
                JOINT LeftArm
                {
                    OFFSET 10.572188 0.000000 0.000000
                    CHANNELS 3 Zrotation Xrotation Yrotation
                    JOINT LeftForeArm
                    {
                        OFFSET 34.932854 0.000000 0.000000
                        CHANNELS 3 Zrotation Xrotation Yrotation
                        JOINT LeftHand
                        {
                            OFFSET 23.279285 0.000000 0.000000
                            CHANNELS 3 Zrotation Xrotation Yrotation
                            End Site
                            {
                                OFFSET 14.447429 0.000000 0.000000
                            }
                        }
                    }
                }
            }
            JOINT RightShoulder
            {
                OFFSET -3.825334 21.096247 -0.110468
                CHANNELS 3 Zrotation Xrotation Yrotation
                JOINT RightArm
                {
                    OFFSET -10.572188 0.000000 0.000000
                    CHANNELS 3 Zrotation Xrotation Yrotation
                    JOINT RightForeArm
                    {
                        OFFSET -34.932854 0.000000 0.000000
                        CHANNELS 3 Zrotation Xrotation Yrotation
                        JOINT RightHand
                        {
                            OFFSET -23.279285 0.000000 0.000000
                            CHANNELS 3 Zrotation Xrotation Yrotation
                            End Site
                            {
                                OFFSET -14.447429 0.000000 0.000000
                            }
                        }
                    }
                }
            }
        }
    }
    JOINT LeftUpLeg
    {
        OFFSET 9.631618 0.000000 0.000000
        CHANNELS 3 Zrotation Xrotation Yrotation
        JOINT LeftLeg
        {
            OFFSET -0.000000 -35.385456 0.000000
            CHANNELS 3 Zrotation Xrotation Yrotation
            JOINT LeftFoot
            {
                OFFSET -0.000000 -43.284000 0.000000
                CHANNELS 3 Zrotation Xrotation Yrotation
                JOINT LeftToeBase
                {
                    OFFSET -0.000000 -6.260552 14.447429
                    CHANNELS 3 Zrotation Xrotation Yrotation
                    End Site
                    {
                        OFFSET -0.000000 0.000000 3.852648
                    }
                }
            }
        }
    }
    JOINT RightUpLeg
    {
        OFFSET -9.631618 0.000000 0.000000
        CHANNELS 3 Zrotation Xrotation Yrotation
        JOINT RightLeg
        {
            OFFSET -0.000000 -35.385456 0.000000
            CHANNELS 3 Zrotation Xrotation Yrotation
            JOINT RightFoot
            {
                OFFSET -0.000000 -43.284000 0.000000
                CHANNELS 3 Zrotation Xrotation Yrotation
                JOINT RightToeBase
                {
                    OFFSET -0.000000 -6.260552 14.447429
                    CHANNELS 3 Zrotation Xrotation Yrotation
                    End Site
                    {
                        OFFSET -0.000000 0.000000 3.852648
                    }
                }
            }
        }
    }
}
MOTION
Frames:    13
Frame Time:    0.008333
-26.522537    88.523575    34.916531    -1.070728    -1.857412    88.472351    1.685240    -3.547101    -1.027647    0.752080    -0.792489    -1.074670    -2.726045    14.119207    -10.724100    8.283024    8.418925    -10.549704    17.614315    1.172705    5.562624    -17.745813    10.236335    -6.155575    2.825806    -7.239616    -0.646128    -3.571339    -7.193247    -0.988128    -16.462093    -1.118208    6.336330    16.860332    1.039607    -0.335180    -0.271492    0.952811    -0.271160    -2.024704    0.840995    6.285971    5.980865    3.073969    3.431013    -3.853809    5.924194    -13.468843    -0.673675    -8.940701    21.129416    0.000000    0.000000    0.000000    -1.468564    -1.205395    -1.303471    4.189537    9.387539    3.603253    -1.862031    -7.139631    -11.909100    0.000000    0.000000    0.000000    
-26.517889    88.530624    34.913155    -1.103134    -1.854180    88.449417    1.718017    -3.577811    -1.032316    0.700138    -0.763247    -1.081340    -2.759946    14.215930    -10.643648    8.345583    8.379854    -10.460359    17.662922    1.111538    5.654777    -17.742533    10.232040    -6.174258    2.818376    -7.134255    -0.626440    -3.454424    -7.090407    -0.954325    -16.558039    -1.121062    6.335154    16.955729    0.974902    -0.283805    -0.253711    0.835839    -0.326749    -2.012231    0.721997    6.437570    5.972459    3.077533    3.429355    -3.858038    5.867865    -13.415778    -0.682743    -8.897184    21.108620    0.000000    0.000000    0.000000    -1.463727    -1.198071    -1.365303    4.163957    9.326596    3.698102    -1.861292    -7.108009    -11.930636    0.000000    0.000000    0.000000    
-26.515877    88.532524    34.912220    -1.119097    -1.856535    88.435410    1.732678    -3.569673    -1.031846    0.679476    -0.797080    -1.081104    -2.746961    14.375138    -10.590108    8.360197    8.197639    -10.394312    17.679482    1.123051    5.681783    -17.740112    10.218630    -6.177166    2.829319    -7.090398    -0.623180    -3.385896    -7.048450    -0.909476    -16.578251    -1.119750    6.353176    16.965946    0.944861    -0.281839    -0.258633    0.778083    -0.354599    -1.820388    0.674356    6.472295    5.975428    3.082774    3.436464    -3.866843    5.836031    -13.396778    -0.674234    -8.881379    21.105192    0.000000    0.000000    0.000000    -1.448003    -1.178733    -1.313061    4.144686    9.260612    3.681203    -1.842038    -7.082230    -11.946592    0.000000    0.000000    0.000000    
-26.514345    88.537178    34.909363    -1.143170    -1.853431    88.422859    1.741920    -3.572888    -1.027493    0.652882    -0.826094    -1.077138    -2.707371    14.360497    -10.581426    8.267650    8.332045    -10.401871    17.710583    1.111645    5.680899    -17.747154    10.182807    -6.146794    2.825458    -7.092477    -0.577704    -3.304670    -7.048408    -1.045364    -16.569084    -1.121609    6.355019    16.954987    0.920532    -0.282797    -0.209846    0.705410    -0.374695    -1.880905    0.598289    6.476056    5.969924    3.078705    3.436203    -3.868119    5.805041    -13.390574    -0.681908    -8.858257    21.109592    0.000000    0.000000    0.000000    -1.450188    -1.179704    -1.344482    4.135999    9.221373    3.741739    -1.834827    -7.061139    -11.966723    0.000000    0.000000    0.000000    
-26.512817    88.540611    34.903191    -1.161606    -1.851360    88.414764    1.752874    -3.558622    -1.024516    0.635718    -0.869111    -1.074150    -2.557050    14.185169    -10.504977    8.002681    8.612698    -10.358595    17.724974    1.121919    5.696386    -17.748894    10.150257    -6.129491    2.834913    -7.053270    -0.594448    -3.341700    -7.008886    -1.028993    -16.585625    -1.137188    6.358266    16.962337    0.901298    -0.297596    -0.219411    0.646993    -0.373628    -1.791641    0.545520    6.436157    5.958684    3.074011    3.435336    -3.863845    5.784100    -13.369617    -0.688342    -8.840666    21.104139    0.000000    0.000000    0.000000    -1.454514    -1.169595    -1.341759    4.133757    9.173841    3.749109    -1.836810    -7.039958    -11.964956    0.000000    0.000000    0.000000    
-26.509296    88.543617    34.901215    -1.181346    -1.853707    88.400742    1.745502    -3.531640    -1.018835    0.656815    -0.950856    -1.067267    -2.626920    14.347667    -10.436874    8.152642    8.482158    -10.270754    17.713480    1.133559    5.677003    -17.752699    10.095034    -6.077984    2.847085    -7.031427    -0.604807    -3.403203    -6.986701    -1.011125    -16.600798    -1.117566    6.365805    16.954832    0.865607    -0.311223    -0.216083    0.715696    -0.372859    -1.723251    0.619158    6.367725    5.950763    3.087828    3.391582    -3.858272    5.724698    -13.290964    -0.732393    -8.827872    21.086155    0.000000    0.000000    0.000000    -1.447315    -1.157096    -1.323180    4.126456    9.116871    3.747895    -1.828059    -7.019572    -11.968907    0.000000    0.000000    0.000000    
-26.507416    88.548058    34.899521    -1.202297    -1.860329    88.390724    1.742229    -3.528286    -1.012904    0.674421    -0.973764    -1.060868    -2.649897    14.463857    -10.403173    8.216959    8.347490    -10.223914    17.726120    1.121443    5.681562    -17.765148    10.041492    -6.040683    2.860076    -7.038613    -0.606609    -3.556092    -6.991527    -1.040661    -16.621887    -1.120707    6.356680    16.943481    0.831612    -0.324201    -0.208310    0.838356    -0.367328    -1.716458    0.743309    6.298946    5.952952    3.071743    3.491019    -3.845551    5.726326    -13.384233    -0.730532    -8.819500    21.098618    0.000000    0.000000    0.000000    -1.437811    -1.140097    -1.313049    4.128022    9.049889    3.704678    -1.811757    -6.984276    -11.944060    0.000000    0.000000    0.000000    
-26.503885    88.550232    34.896927    -1.221607    -1.860282    88.378937    1.754095    -3.524894    -1.013782    0.659476    -0.998228    -1.062028    -2.784694    14.796556    -10.391238    8.496369    7.930304    -10.167380    17.734673    1.115957    5.705899    -17.757978    9.984561    -6.015041    2.864723    -7.084933    -0.581529    -3.686139    -7.036012    -1.079847    -16.649931    -1.127245    6.369812    16.937056    0.742032    -0.341322    -0.111775    0.930591    -0.370659    -2.037543    0.819030    6.250546    5.943925    3.079425    3.428174    -3.847161    5.676248    -13.283360    -0.729771    -8.791645    21.079653    0.000000    0.000000    0.000000    -1.439973    -1.128620    -1.270375    4.132260    8.991767    3.665164    -1.802869    -6.964987    -11.921969    0.000000    0.000000    0.000000    
-26.501629    88.552162    34.894199    -1.235967    -1.864455    88.371819    1.748851    -3.509905    -1.010134    0.678520    -1.029171    -1.057686    -2.839628    14.896653    -10.363666    8.612246    7.814668    -10.123331    17.736115    1.096617    5.713635    -17.751043    9.930124    -5.980055    2.848580    -7.111970    -0.611257    -3.804343    -7.066115    -0.933803    -16.676926    -1.159687    6.330455    16.940939    0.742681    -0.329068    -0.135813    1.051066    -0.377665    -1.991548    0.943403    6.163652    5.944556    3.078411    3.443038    -3.844041    5.661296    -13.300458    -0.748401    -8.798467    21.084665    0.000000    0.000000    0.000000    -1.435983    -1.125482    -1.339487    4.118411    8.971295    3.775194    -1.823384    -6.955309    -11.953883    0.000000    0.000000    0.000000    
-26.498079    88.552795    34.892887    -1.254704    -1.872111    88.361977    1.740111    -3.525028    -0.991797    0.696563    -1.005907    -1.039266    -2.877901    15.001977    -10.367064    8.749317    7.642921    -10.105912    17.770184    1.074508    5.721300    -17.767061    9.839616    -5.979998    2.845291    -7.162985    -0.589711    -3.910707    -7.117932    -0.900920    -16.698309    -1.174772    6.272346    16.936674    0.751310    -0.336753    -0.161447    1.103381    -0.389770    -1.979163    0.996793    6.135737    5.950394    3.076624    3.458254    -3.844916    5.636695    -13.295494    -0.735477    -8.776681    21.078604    0.000000    0.000000    0.000000    -1.426871    -1.118689    -1.343851    4.113895    8.933218    3.833480    -1.820865    -6.938648    -11.992606    0.000000    0.000000    0.000000    
-26.494907    88.552620    34.887436    -1.267747    -1.866704    88.347054    1.738422    -3.504936    -0.989296    0.703320    -1.050381    -1.036039    -2.970342    15.111508    -10.351058    8.904524    7.530884    -10.070751    17.754229    1.058558    5.739175    -17.750908    9.782709    -5.948128    2.862554    -7.175391    -0.574162    -4.006000    -7.131635    -0.850791    -16.727077    -1.115258    6.327605    16.956518    0.706111    -0.410964    -0.223438    1.065348    -0.388779    -2.166445    0.948214    6.153253    5.923786    3.100744    3.592708    -3.804693    5.588244    -13.404044    -0.723116    -8.753407    21.063694    0.000000    0.000000    0.000000    -1.436092    -1.106998    -1.321028    4.117962    8.884145    3.763953    -1.797477    -6.924666    -11.945792    0.000000    0.000000    0.000000    
-26.493883    88.551926    34.885670    -1.287733    -1.875396    88.336769    1.729730    -3.508660    -0.978181    0.740661    -1.052926    -1.024388    -3.031679    15.244492    -10.343749    9.026936    7.320580    -10.040213    17.722284    1.056240    5.756159    -17.716129    9.716451    -5.948656    2.886282    -7.199001    -0.573531    -4.035068    -7.159423    -0.722121    -16.769835    -1.128872    6.310544    16.958778    0.702957    -0.443403    -0.254271    1.001022    -0.400436    -2.009278    0.893641    6.072782    5.930655    3.086848    3.612933    -3.805894    5.583729    -13.416230    -0.715986    -8.753922    21.069904    0.000000    0.000000    0.000000    -1.425969    -1.114077    -1.326486    4.113533    8.859829    3.785214    -1.810908    -6.914522    -11.951026    0.000000    0.000000    0.000000    
-26.491945    88.551102    34.881382    -1.304738    -1.875461    88.320129    1.738872    -3.491939    -0.967135    0.726339    -1.098442    -1.013183    -3.038389    15.372741    -10.324428    9.088629    7.157182    -10.005768    17.727947    1.062920    5.757931    -17.704710    9.681240    -5.936095    2.896124    -7.144610    -0.473837    -4.003221    -7.098942    -0.974406    -16.757034    -1.109040    6.319513    16.929022    0.659677    -0.482226    -0.268679    0.930194    -0.433696    -1.985172    0.824229    6.051101    5.928675    3.077508    3.618492    -3.811275    5.577588    -13.364277    -0.706781    -8.746181    21.027311    0.000000    0.000000    0.000000    -1.430574    -1.124985    -1.348130    4.110481    8.853974    3.834581    -1.802718    -6.918540    -11.959562    0.000000    0.000000    0.000000    
